<?xml version="1.0" encoding="UTF-8" standalone="no"?>
<svg
   xmlns:dc="http://purl.org/dc/elements/1.1/"
   xmlns:cc="http://creativecommons.org/ns#"
   xmlns:rdf="http://www.w3.org/1999/02/22-rdf-syntax-ns#"
   xmlns:svg="http://www.w3.org/2000/svg"
   xmlns="http://www.w3.org/2000/svg"
   xmlns:sodipodi="http://sodipodi.sourceforge.net/DTD/sodipodi-0.dtd"
   xmlns:inkscape="http://www.inkscape.org/namespaces/inkscape"
   width="64.558327mm"
   height="42.068748mm"
   viewBox="0 0 64.558327 42.068748"
   version="1.1"
   id="svg8"
   inkscape:version="1.0.1 (3bc2e813f5, 2020-09-07)"
   sodipodi:docname="jagged-bytes-logo.svg">
  <defs
     id="defs2">
    <inkscape:path-effect
       effect="powerclip"
       id="path-effect1280"
       is_visible="true"
       lpeversion="1"
       inverse="true"
       flatten="false"
       hide_clip="false"
       message="Use fill-rule evenodd on &lt;b&gt;fill and stroke&lt;/b&gt; dialog if no flatten result after convert clip to paths." />
    <inkscape:path-effect
       effect="powerclip"
       id="path-effect1242"
       is_visible="true"
       lpeversion="1"
       inverse="true"
       flatten="false"
       hide_clip="false"
       message="Use fill-rule evenodd on &lt;b&gt;fill and stroke&lt;/b&gt; dialog if no flatten result after convert clip to paths." />
    <inkscape:path-effect
       effect="powerclip"
       id="path-effect1182"
       is_visible="true"
       lpeversion="1"
       inverse="true"
       flatten="false"
       hide_clip="false"
       message="Use fill-rule evenodd on &lt;b&gt;fill and stroke&lt;/b&gt; dialog if no flatten result after convert clip to paths." />
    <inkscape:path-effect
       effect="powerclip"
       id="path-effect1139"
       is_visible="true"
       lpeversion="1"
       inverse="true"
       flatten="false"
       hide_clip="false"
       message="Use fill-rule evenodd on &lt;b&gt;fill and stroke&lt;/b&gt; dialog if no flatten result after convert clip to paths." />
    <inkscape:path-effect
       effect="powerclip"
       id="path-effect1105"
       is_visible="true"
       lpeversion="1"
       inverse="true"
       flatten="false"
       hide_clip="false"
       message="Use fill-rule evenodd on &lt;b&gt;fill and stroke&lt;/b&gt; dialog if no flatten result after convert clip to paths." />
    <clipPath
       clipPathUnits="userSpaceOnUse"
       id="clipPath1101">
      <path
         style="display:block;fill:#ffffff;stroke:none;stroke-width:0.264583px;stroke-linecap:butt;stroke-linejoin:miter;stroke-opacity:1"
         d="m 91.810417,53.445833 h 4.233333 v 4.233334 h -4.233333 z"
         id="path1103"
         sodipodi:nodetypes="ccccc" />
      <path
         style="fill:#ffffff;stroke:none;stroke-width:0.264583px;stroke-linecap:butt;stroke-linejoin:miter;stroke-opacity:1"
         class="powerclip"
         d="m 84.958333,46.59375 h 17.937497 v 17.9375 H 84.958333 Z m 6.852084,6.852083 v 4.233334 h 4.233333 v -4.233334 z" />
    </clipPath>
    <clipPath
       clipPathUnits="userSpaceOnUse"
       id="clipPath1101-8">
      <path
         style="display:none;fill:#ffffff;stroke:none;stroke-width:0.264583px;stroke-linecap:butt;stroke-linejoin:miter;stroke-opacity:1"
         d="m 91.810417,53.445833 h 4.233333 v 4.233334 h -4.233333 z"
         id="path1103-0"
         sodipodi:nodetypes="ccccc" />
      <path
         style="display:none;fill:#ffffff;stroke:none;stroke-width:0.264583px;stroke-linecap:butt;stroke-linejoin:miter;stroke-opacity:1"
         class="powerclip"
         d="m 84.958333,46.59375 h 17.937497 v 17.9375 H 84.958333 Z m 6.852084,6.852083 v 4.233334 H 96.04375 V 53.445833 Z M 84.958333,46.59375 v 17.9375 h 17.937497 v -17.9375 z m 6.852084,6.852083 v 4.233334 H 96.04375 V 53.445833 Z M 84.958333,46.59375 v 17.9375 h 17.937497 v -17.9375 z m 6.852084,6.852083 v 4.233334 H 96.04375 V 53.445833 Z M 84.958333,46.59375 v 17.9375 h 17.937497 v -17.9375 z m 6.852084,6.852083 v 4.233334 H 96.04375 V 53.445833 Z M 84.958333,46.59375 v 17.9375 h 17.937497 v -17.9375 z m 6.852084,6.852083 v 4.233334 h 4.233333 v -4.233334 z"
         id="lpe_path-effect1105-7" />
      <path
         style="fill:#ffffff;stroke:none;stroke-width:0.264583px;stroke-linecap:butt;stroke-linejoin:miter;stroke-opacity:1"
         class="powerclip"
         id="path1119"
         d="m 84.958333,46.59375 h 17.937497 v 17.9375 H 84.958333 Z m 6.852084,6.852083 v 4.233334 h 4.233333 v -4.233334 z" />
    </clipPath>
    <clipPath
       clipPathUnits="userSpaceOnUse"
       id="clipath_lpe_path-effect1139">
      <path
         style="display:block;fill:#ffffff;stroke:none;stroke-width:0.264583px;stroke-linecap:butt;stroke-linejoin:miter;stroke-opacity:1"
         d="m 91.810417,53.445833 h 4.233333 v 4.233334 h -4.233333 z"
         id="path1141"
         sodipodi:nodetypes="ccccc" />
      <path
         style="display:block;fill:#ffffff;stroke:none;stroke-width:0.264583px;stroke-linecap:butt;stroke-linejoin:miter;stroke-opacity:1"
         class="powerclip"
         d="m 84.958333,46.59375 h 17.937497 v 17.9375 H 84.958333 Z m 6.852084,6.852083 v 4.233334 H 96.04375 V 53.445833 Z M 84.958333,46.59375 v 17.9375 h 17.937497 v -17.9375 z m 6.852084,6.852083 v 4.233334 H 96.04375 V 53.445833 Z M 84.958333,46.59375 v 17.9375 h 17.937497 v -17.9375 z m 6.852084,6.852083 v 4.233334 H 96.04375 V 53.445833 Z M 84.958333,46.59375 v 17.9375 h 17.937497 v -17.9375 z m 6.852084,6.852083 v 4.233334 H 96.04375 V 53.445833 Z M 84.958333,46.59375 v 17.9375 h 17.937497 v -17.9375 z m 6.852084,6.852083 v 4.233334 h 4.233333 v -4.233334 z"
         id="path1143" />
    </clipPath>
    <clipPath
       clipPathUnits="userSpaceOnUse"
       id="clipPath1101-0">
      <path
         style="display:none;fill:#ffffff;stroke:none;stroke-width:0.264583px;stroke-linecap:butt;stroke-linejoin:miter;stroke-opacity:1"
         d="m 91.810417,53.445833 h 4.233333 v 4.233334 h -4.233333 z"
         id="path1103-3"
         sodipodi:nodetypes="ccccc" />
      <path
         style="display:none;fill:#ffffff;stroke:none;stroke-width:0.264583px;stroke-linecap:butt;stroke-linejoin:miter;stroke-opacity:1"
         class="powerclip"
         d="m 84.958333,46.59375 h 17.937497 v 17.9375 H 84.958333 Z m 6.852084,6.852083 v 4.233334 H 96.04375 V 53.445833 Z M 84.958333,46.59375 v 17.9375 h 17.937497 v -17.9375 z m 6.852084,6.852083 v 4.233334 H 96.04375 V 53.445833 Z M 84.958333,46.59375 v 17.9375 h 17.937497 v -17.9375 z m 6.852084,6.852083 v 4.233334 H 96.04375 V 53.445833 Z M 84.958333,46.59375 v 17.9375 h 17.937497 v -17.9375 z m 6.852084,6.852083 v 4.233334 H 96.04375 V 53.445833 Z M 84.958333,46.59375 v 17.9375 h 17.937497 v -17.9375 z m 6.852084,6.852083 v 4.233334 h 4.233333 v -4.233334 z"
         id="lpe_path-effect1105-6" />
      <path
         style="fill:#ffffff;stroke:none;stroke-width:0.264583px;stroke-linecap:butt;stroke-linejoin:miter;stroke-opacity:1"
         class="powerclip"
         id="path1162"
         d="m 84.958333,46.59375 h 17.937497 v 17.9375 H 84.958333 Z m 6.852084,6.852083 v 4.233334 h 4.233333 v -4.233334 z" />
    </clipPath>
    <clipPath
       clipPathUnits="userSpaceOnUse"
       id="clipath_lpe_path-effect1182">
      <path
         style="display:block;fill:#ffffff;stroke:none;stroke-width:0.264583px;stroke-linecap:butt;stroke-linejoin:miter;stroke-opacity:1"
         d="m 91.810417,53.445833 h 4.233333 v 4.233334 h -4.233333 z"
         id="path1184"
         sodipodi:nodetypes="ccccc" />
      <path
         style="display:block;fill:#ffffff;stroke:none;stroke-width:0.264583px;stroke-linecap:butt;stroke-linejoin:miter;stroke-opacity:1"
         class="powerclip"
         d="m 84.958333,46.59375 h 17.937497 v 17.9375 H 84.958333 Z m 6.852084,6.852083 v 4.233334 H 96.04375 V 53.445833 Z M 84.958333,46.59375 v 17.9375 h 17.937497 v -17.9375 z m 6.852084,6.852083 v 4.233334 H 96.04375 V 53.445833 Z M 84.958333,46.59375 v 17.9375 h 17.937497 v -17.9375 z m 6.852084,6.852083 v 4.233334 H 96.04375 V 53.445833 Z M 84.958333,46.59375 v 17.9375 h 17.937497 v -17.9375 z m 6.852084,6.852083 v 4.233334 H 96.04375 V 53.445833 Z M 84.958333,46.59375 v 17.9375 h 17.937497 v -17.9375 z m 6.852084,6.852083 v 4.233334 h 4.233333 v -4.233334 z"
         id="path1186" />
    </clipPath>
    <clipPath
       clipPathUnits="userSpaceOnUse"
       id="clipPath1101-7">
      <path
         style="display:none;fill:#ffffff;stroke:none;stroke-width:0.264583px;stroke-linecap:butt;stroke-linejoin:miter;stroke-opacity:1"
         d="m 91.810417,53.445833 h 4.233333 v 4.233334 h -4.233333 z"
         id="path1103-8"
         sodipodi:nodetypes="ccccc" />
      <path
         style="display:none;fill:#ffffff;stroke:none;stroke-width:0.264583px;stroke-linecap:butt;stroke-linejoin:miter;stroke-opacity:1"
         class="powerclip"
         d="m 84.958333,46.59375 h 17.937497 v 17.9375 H 84.958333 Z m 6.852084,6.852083 v 4.233334 H 96.04375 V 53.445833 Z M 84.958333,46.59375 v 17.9375 h 17.937497 v -17.9375 z m 6.852084,6.852083 v 4.233334 H 96.04375 V 53.445833 Z M 84.958333,46.59375 v 17.9375 h 17.937497 v -17.9375 z m 6.852084,6.852083 v 4.233334 H 96.04375 V 53.445833 Z M 84.958333,46.59375 v 17.9375 h 17.937497 v -17.9375 z m 6.852084,6.852083 v 4.233334 H 96.04375 V 53.445833 Z M 84.958333,46.59375 v 17.9375 h 17.937497 v -17.9375 z m 6.852084,6.852083 v 4.233334 h 4.233333 v -4.233334 z"
         id="lpe_path-effect1105-2" />
      <path
         style="fill:#ffffff;stroke:none;stroke-width:0.264583px;stroke-linecap:butt;stroke-linejoin:miter;stroke-opacity:1"
         class="powerclip"
         id="path1201"
         d="m 84.958333,46.59375 h 17.937497 v 17.9375 H 84.958333 Z m 6.852084,6.852083 v 4.233334 h 4.233333 v -4.233334 z" />
    </clipPath>
    <clipPath
       clipPathUnits="userSpaceOnUse"
       id="clipath_lpe_path-effect1242">
      <path
         style="display:block;fill:#ffffff;stroke:none;stroke-width:0.264583px;stroke-linecap:butt;stroke-linejoin:miter;stroke-opacity:1"
         d="m 91.810417,53.445833 h 4.233333 v 4.233334 h -4.233333 z"
         id="path1244"
         sodipodi:nodetypes="ccccc" />
      <path
         style="display:block;fill:#ffffff;stroke:none;stroke-width:0.264583px;stroke-linecap:butt;stroke-linejoin:miter;stroke-opacity:1"
         class="powerclip"
         d="m 84.958333,46.59375 h 17.937497 v 17.9375 H 84.958333 Z m 6.852084,6.852083 v 4.233334 H 96.04375 V 53.445833 Z M 84.958333,46.59375 v 17.9375 h 17.937497 v -17.9375 z m 6.852084,6.852083 v 4.233334 H 96.04375 V 53.445833 Z M 84.958333,46.59375 v 17.9375 h 17.937497 v -17.9375 z m 6.852084,6.852083 v 4.233334 H 96.04375 V 53.445833 Z M 84.958333,46.59375 v 17.9375 h 17.937497 v -17.9375 z m 6.852084,6.852083 v 4.233334 H 96.04375 V 53.445833 Z M 84.958333,46.59375 v 17.9375 h 17.937497 v -17.9375 z m 6.852084,6.852083 v 4.233334 h 4.233333 v -4.233334 z"
         id="path1246" />
    </clipPath>
    <clipPath
       clipPathUnits="userSpaceOnUse"
       id="clipath_lpe_path-effect1242-0">
      <path
         style="display:none;fill:#ffffff;stroke:none;stroke-width:0.264583px;stroke-linecap:butt;stroke-linejoin:miter;stroke-opacity:1"
         d="m 91.810417,53.445833 h 4.233333 v 4.233334 h -4.233333 z"
         id="path1244-4"
         sodipodi:nodetypes="ccccc" />
      <path
         style="display:none;fill:#ffffff;stroke:none;stroke-width:0.264583px;stroke-linecap:butt;stroke-linejoin:miter;stroke-opacity:1"
         class="powerclip"
         d="m 84.958333,46.59375 h 17.937497 v 17.9375 H 84.958333 Z m 6.852084,6.852083 v 4.233334 H 96.04375 V 53.445833 Z M 84.958333,46.59375 v 17.9375 h 17.937497 v -17.9375 z m 6.852084,6.852083 v 4.233334 H 96.04375 V 53.445833 Z M 84.958333,46.59375 v 17.9375 h 17.937497 v -17.9375 z m 6.852084,6.852083 v 4.233334 H 96.04375 V 53.445833 Z M 84.958333,46.59375 v 17.9375 h 17.937497 v -17.9375 z m 6.852084,6.852083 v 4.233334 H 96.04375 V 53.445833 Z M 84.958333,46.59375 v 17.9375 h 17.937497 v -17.9375 z m 6.852084,6.852083 v 4.233334 h 4.233333 v -4.233334 z"
         id="path1246-5" />
      <path
         style="fill:#ffffff;stroke:none;stroke-width:0.264583px;stroke-linecap:butt;stroke-linejoin:miter;stroke-opacity:1"
         class="powerclip"
         id="lpe_path-effect1242-9"
         d="m 84.958333,46.59375 h 17.937497 v 17.9375 H 84.958333 Z m 6.852084,6.852083 v 4.233334 H 96.04375 V 53.445833 Z M 84.958333,46.59375 v 17.9375 h 17.937497 v -17.9375 z m 6.852084,6.852083 v 4.233334 H 96.04375 V 53.445833 Z M 84.958333,46.59375 v 17.9375 h 17.937497 v -17.9375 z m 6.852084,6.852083 v 4.233334 H 96.04375 V 53.445833 Z M 84.958333,46.59375 v 17.9375 h 17.937497 v -17.9375 z m 6.852084,6.852083 v 4.233334 H 96.04375 V 53.445833 Z M 84.958333,46.59375 v 17.9375 h 17.937497 v -17.9375 z m 6.852084,6.852083 v 4.233334 H 96.04375 V 53.445833 Z M 84.958333,46.59375 v 17.9375 h 17.937497 v -17.9375 z m 6.852084,6.852083 v 4.233334 h 4.233333 v -4.233334 z" />
    </clipPath>
    <clipPath
       clipPathUnits="userSpaceOnUse"
       id="clipath_lpe_path-effect1280">
      <path
         style="display:block;fill:#ffffff;stroke:none;stroke-width:0.264583px;stroke-linecap:butt;stroke-linejoin:miter;stroke-opacity:1"
         d="m 91.810417,53.445833 h 4.233333 v 4.233334 h -4.233333 z"
         id="path1282"
         sodipodi:nodetypes="ccccc" />
      <path
         style="display:block;fill:#ffffff;stroke:none;stroke-width:0.264583px;stroke-linecap:butt;stroke-linejoin:miter;stroke-opacity:1"
         class="powerclip"
         d="m 84.958333,46.59375 h 17.937497 v 17.9375 H 84.958333 Z m 6.852084,6.852083 v 4.233334 H 96.04375 V 53.445833 Z M 84.958333,46.59375 v 17.9375 h 17.937497 v -17.9375 z m 6.852084,6.852083 v 4.233334 H 96.04375 V 53.445833 Z M 84.958333,46.59375 v 17.9375 h 17.937497 v -17.9375 z m 6.852084,6.852083 v 4.233334 H 96.04375 V 53.445833 Z M 84.958333,46.59375 v 17.9375 h 17.937497 v -17.9375 z m 6.852084,6.852083 v 4.233334 H 96.04375 V 53.445833 Z M 84.958333,46.59375 v 17.9375 h 17.937497 v -17.9375 z m 6.852084,6.852083 v 4.233334 h 4.233333 v -4.233334 z"
         id="path1284" />
    </clipPath>
  </defs>
  <sodipodi:namedview
     id="base"
     pagecolor="#ffffff"
     bordercolor="#666666"
     borderopacity="1.0"
     inkscape:pageopacity="0.0"
     inkscape:pageshadow="2"
     inkscape:zoom="3.959798"
     inkscape:cx="226.80934"
     inkscape:cy="168.03936"
     inkscape:document-units="mm"
     inkscape:current-layer="layer1"
     inkscape:document-rotation="0"
     showgrid="false"
     inkscape:snap-intersection-paths="true"
     inkscape:object-paths="true"
     inkscape:snap-bbox="true"
     inkscape:bbox-paths="true"
     inkscape:bbox-nodes="true"
     inkscape:snap-bbox-edge-midpoints="true"
     inkscape:snap-perpendicular="false"
     objecttolerance="20"
     inkscape:snap-tangential="false"
     inkscape:window-width="3840"
     inkscape:window-height="2066"
     inkscape:window-x="-11"
     inkscape:window-y="-11"
     inkscape:window-maximized="1">
    <inkscape:grid
       type="xygrid"
       id="grid1069"
       originx="49.085452"
       originy="-40.368436" />
  </sodipodi:namedview>
  <metadata
     id="metadata5">
    <rdf:RDF>
      <cc:Work
         rdf:about="">
        <dc:format>image/svg+xml</dc:format>
        <dc:type
           rdf:resource="http://purl.org/dc/dcmitype/StillImage" />
        <dc:title></dc:title>
      </cc:Work>
    </rdf:RDF>
  </metadata>
  <g
     inkscape:label="Layer 1"
     inkscape:groupmode="layer"
     id="layer1"
     transform="translate(-45.24375,-48.154168)">
    <path
       style="fill:#ff0066;fill-opacity:1;stroke:none;stroke-width:0;stroke-linecap:butt;stroke-linejoin:miter;stroke-miterlimit:4;stroke-dasharray:none;stroke-opacity:1"
       d="m 47.625003,88.10625 -3e-6,2.116666 62.17708,-10e-7 v -31.75 l -1.85208,10e-7 V 88.10625 Z"
       id="path1075"
       sodipodi:nodetypes="ccccccc" />
    <g
       aria-label="Jagged"
       id="text835"
       style="font-size:9.91465px;line-height:1.25;font-family:Arial;-inkscape-font-specification:Arial;fill:#000000;fill-opacity:1;stroke-width:0.247867;stroke:none">
      <path
         d="m 68.678895,72.684015 q 0,0.456074 -0.128891,0.832831 -0.12889,0.366842 -0.456074,0.634538 -0.317268,0.25778 -0.882403,0.4065 -0.565135,0.14872 -1.437625,0.14872 -0.862574,0 -1.427709,-0.14872 -0.555221,-0.14872 -0.882404,-0.4065 -0.317269,-0.267696 -0.446159,-0.634538 -0.118976,-0.376757 -0.118976,-0.832831 v -1.606173 q 0,-0.188378 0.07932,-0.267695 0.08923,-0.08923 0.27761,-0.08923 h 1.437624 q 0.188379,0 0.267696,0.08923 0.08923,0.07932 0.08923,0.267695 v 1.209587 q 0,0.198293 0.118976,0.337098 0.12889,0.128891 0.584964,0.128891 0.42633,0 0.535391,-0.128891 0.118976,-0.138805 0.118976,-0.337098 v -4.511165 q 0,-0.188379 0.07932,-0.267696 0.08923,-0.08923 0.27761,-0.08923 h 1.5566 q 0.188379,0 0.267696,0.08923 0.08923,0.07932 0.08923,0.267696 z"
         style="font-style:normal;font-variant:normal;font-weight:normal;font-stretch:normal;font-family:Bungee;-inkscape-font-specification:Bungee;fill:#000000;fill-opacity:1;stroke-width:0.247867;stroke:none"
         id="path1331" />
      <path
         d="m 72.585264,69.501413 -0.465988,1.507027 h 1.5566 l -0.465989,-1.507027 q -0.03966,-0.08923 -0.08923,-0.128891 -0.03966,-0.03966 -0.09915,-0.03966 h -0.247866 q -0.05949,0 -0.109061,0.03966 -0.03966,0.03966 -0.07932,0.128891 z m -0.565135,4.699544 q 0,0.188378 -0.08923,0.27761 -0.07932,0.07932 -0.267695,0.07932 h -1.457454 q -0.188378,0 -0.27761,-0.07932 -0.07932,-0.08923 -0.07932,-0.27761 v -2.617468 q 0,-0.297439 0.08923,-0.684111 0.09915,-0.386671 0.297439,-0.902233 l 0.862575,-2.250625 q 0.05949,-0.168549 0.178464,-0.247867 0.12889,-0.07932 0.327183,-0.07932 h 2.667041 q 0.188378,0 0.307354,0.07932 0.12889,0.07932 0.188378,0.247867 l 0.862575,2.250625 q 0.198293,0.515562 0.287525,0.902233 0.09915,0.386672 0.09915,0.684111 v 2.617468 q 0,0.188378 -0.08923,0.27761 -0.07932,0.07932 -0.267695,0.07932 h -1.497112 q -0.198293,0 -0.29744,-0.07932 -0.08923,-0.08923 -0.08923,-0.27761 v -1.388051 h -1.754893 z"
         style="font-style:normal;font-variant:normal;font-weight:normal;font-stretch:normal;font-family:Bungee;-inkscape-font-specification:Bungee;fill:#000000;fill-opacity:1;stroke-width:0.247867;stroke:none"
         id="path1333" />
      <path
         d="m 82.688288,74.557884 h -3.123115 q -1.239331,0 -1.844124,-0.495732 -0.594879,-0.495733 -0.594879,-1.526856 v -3.093371 q 0,-1.031124 0.594879,-1.526856 0.604793,-0.495733 1.844124,-0.495733 h 2.478663 q 0.188378,0 0.267695,0.08923 0.08923,0.07932 0.08923,0.267696 v 1.199672 q 0,0.188379 -0.08923,0.27761 -0.07932,0.07932 -0.267695,0.07932 h -2.062247 q -0.307354,0 -0.456074,0.12889 -0.14872,0.118976 -0.14872,0.366842 v 2.369602 q 0,0.247866 0.109061,0.366842 0.118976,0.118975 0.347013,0.118975 H 80.79459 V 71.13733 q 0,-0.188378 0.07932,-0.267696 0.08923,-0.08923 0.27761,-0.08923 h 1.536771 q 0.188378,0 0.267696,0.08923 0.08923,0.07932 0.08923,0.267696 v 3.063627 q 0,0.188378 -0.08923,0.27761 -0.07932,0.07932 -0.267696,0.07932 z"
         style="font-style:normal;font-variant:normal;font-weight:normal;font-stretch:normal;font-family:Bungee;-inkscape-font-specification:Bungee;fill:#000000;fill-opacity:1;stroke-width:0.247867;stroke:none"
         id="path1335" />
      <path
         d="m 89.707843,74.557884 h -3.123115 q -1.239331,0 -1.844124,-0.495732 -0.594879,-0.495733 -0.594879,-1.526856 v -3.093371 q 0,-1.031124 0.594879,-1.526856 0.604793,-0.495733 1.844124,-0.495733 h 2.478663 q 0.188378,0 0.267696,0.08923 0.08923,0.07932 0.08923,0.267696 v 1.199672 q 0,0.188379 -0.08923,0.27761 -0.07932,0.07932 -0.267696,0.07932 h -2.062247 q -0.307354,0 -0.456074,0.12889 -0.14872,0.118976 -0.14872,0.366842 v 2.369602 q 0,0.247866 0.109061,0.366842 0.118976,0.118975 0.347013,0.118975 h 0.961721 V 71.13733 q 0,-0.188378 0.07932,-0.267696 0.08923,-0.08923 0.27761,-0.08923 h 1.536771 q 0.188379,0 0.267696,0.08923 0.08923,0.07932 0.08923,0.267696 v 3.063627 q 0,0.188378 -0.08923,0.27761 -0.07932,0.07932 -0.267696,0.07932 z"
         style="font-style:normal;font-variant:normal;font-weight:normal;font-stretch:normal;font-family:Bungee;-inkscape-font-specification:Bungee;fill:#000000;fill-opacity:1;stroke-width:0.247867;stroke:none"
         id="path1337" />
      <path
         d="m 96.231665,74.557884 h -4.600398 q -0.188378,0 -0.27761,-0.07932 -0.07932,-0.08923 -0.07932,-0.27761 v -6.424693 q 0,-0.188379 0.07932,-0.267696 0.08923,-0.08923 0.27761,-0.08923 h 4.600398 q 0.188378,0 0.267695,0.08923 0.08923,0.07932 0.08923,0.267696 v 1.160014 q 0,0.188378 -0.08923,0.27761 -0.07932,0.07932 -0.267695,0.07932 h -2.736444 v 0.763428 h 1.933357 q 0.188379,0 0.267696,0.08923 0.08923,0.07932 0.08923,0.267696 v 1.060867 q 0,0.188378 -0.08923,0.27761 -0.07932,0.07932 -0.267696,0.07932 h -1.933357 v 0.85266 h 2.736444 q 0.188378,0 0.267695,0.08923 0.08923,0.07932 0.08923,0.267696 v 1.160014 q 0,0.188378 -0.08923,0.27761 -0.07932,0.07932 -0.267695,0.07932 z"
         style="font-style:normal;font-variant:normal;font-weight:normal;font-stretch:normal;font-family:Bungee;-inkscape-font-specification:Bungee;fill:#000000;fill-opacity:1;stroke-width:0.247867;stroke:none"
         id="path1339" />
      <path
         d="m 101.45668,74.557884 h -3.341236 q -0.188378,0 -0.27761,-0.07932 -0.07932,-0.08923 -0.07932,-0.27761 v -6.424693 q 0,-0.188379 0.07932,-0.267696 0.08923,-0.08923 0.27761,-0.08923 h 3.341236 q 1.23933,0 1.83421,0.495733 0.60479,0.495732 0.60479,1.526856 v 3.093371 q 0,1.031123 -0.60479,1.526856 -0.59488,0.495732 -1.83421,0.495732 z m -1.44754,-5.24485 v 3.370981 h 1.17985 q 0.23795,0 0.34701,-0.118975 0.11897,-0.118976 0.11897,-0.366842 v -2.40926 q 0,-0.247867 -0.11897,-0.356928 -0.10906,-0.118976 -0.34701,-0.118976 z"
         style="font-style:normal;font-variant:normal;font-weight:normal;font-stretch:normal;font-family:Bungee;-inkscape-font-specification:Bungee;fill:#000000;fill-opacity:1;stroke-width:0.247867;stroke:none"
         id="path1341" />
    </g>
    <text
       xml:space="preserve"
       style="font-size:10.5833px;line-height:1.25;font-family:Arial;-inkscape-font-specification:Arial;stroke-width:0.264583"
       x="43.278275"
       y="32.411457"
       id="text877"><tspan
         sodipodi:role="line"
         id="tspan875"
         x="43.278275"
         y="32.411457"
         style="stroke-width:0.264583"></tspan></text>
    <g
       aria-label="Bytes"
       id="text881"
       style="font-size:9.91465px;line-height:1.25;font-family:Arial;-inkscape-font-specification:Arial;fill:#000000;fill-opacity:1;stroke-width:0.247867;stroke:none">
      <path
         d="m 75.020024,84.267189 h -3.807225 q -0.188379,0 -0.27761,-0.07932 -0.07932,-0.08923 -0.07932,-0.27761 v -6.424694 q 0,-0.188378 0.07932,-0.267695 0.08923,-0.08923 0.27761,-0.08923 h 3.162773 q 0.971636,0 1.437624,0.376757 0.465989,0.366842 0.465989,1.140184 v 0.475904 q 0,0.416415 -0.14872,0.684111 -0.138805,0.25778 -0.436244,0.386671 0.634537,0.05949 0.941891,0.436244 0.307354,0.376757 0.307354,1.100527 v 0.912147 q 0,0.832831 -0.475903,1.229417 -0.465988,0.396586 -1.447539,0.396586 z m -1.933356,-5.453057 v 1.070782 h 0.842745 q 0.188378,0 0.27761,-0.09915 0.09915,-0.09915 0.09915,-0.297439 v -0.27761 q 0,-0.198293 -0.09915,-0.29744 -0.08923,-0.09915 -0.27761,-0.09915 z m 0,2.597638 v 1.169929 h 1.288904 q 0.188378,0 0.27761,-0.09915 0.09915,-0.09915 0.09915,-0.297439 v -0.386672 q 0,-0.198293 -0.09915,-0.287525 -0.08923,-0.09915 -0.27761,-0.09915 z"
         style="font-style:normal;font-variant:normal;font-weight:normal;font-stretch:normal;font-family:Bungee;-inkscape-font-specification:Bungee;fill:#000000;fill-opacity:1;stroke-width:0.247867;stroke:none"
         id="path1344" />
      <path
         d="m 81.464527,84.267189 h -1.606173 q -0.188378,0 -0.27761,-0.07932 -0.07932,-0.08923 -0.07932,-0.27761 v -1.269076 l -1.516942,-2.032503 q -0.228037,-0.307354 -0.307354,-0.535391 -0.0694,-0.228037 -0.0694,-0.684111 v -1.903613 q 0,-0.188378 0.07932,-0.267695 0.08923,-0.08923 0.27761,-0.08923 h 1.526856 q 0.188378,0 0.267695,0.08923 0.08923,0.07932 0.08923,0.267695 v 1.626003 q 0,0.09915 0.0099,0.208208 0.0099,0.109061 0.07932,0.208207 l 0.456074,0.713855 q 0.04957,0.08923 0.09915,0.128891 0.05949,0.03966 0.138805,0.03966 h 0.09915 q 0.07932,0 0.128891,-0.03966 0.05949,-0.03966 0.109061,-0.128891 l 0.456074,-0.713855 q 0.0694,-0.09915 0.07932,-0.208207 0.0099,-0.109061 0.0099,-0.208208 v -1.626003 q 0,-0.188378 0.07932,-0.267695 0.08923,-0.08923 0.27761,-0.08923 h 1.477283 q 0.188378,0 0.267695,0.08923 0.08923,0.07932 0.08923,0.267695 v 1.903613 q 0,0.456074 -0.07932,0.684111 -0.07932,0.228037 -0.29744,0.535391 l -1.507026,2.042418 v 1.259161 q 0,0.188378 -0.08923,0.27761 -0.07932,0.07932 -0.267696,0.07932 z"
         style="font-style:normal;font-variant:normal;font-weight:normal;font-stretch:normal;font-family:Bungee;-inkscape-font-specification:Bungee;fill:#000000;fill-opacity:1;stroke-width:0.247867;stroke:none"
         id="path1346" />
      <path
         d="m 88.206489,84.267189 h -1.606174 q -0.188378,0 -0.27761,-0.07932 -0.07932,-0.08923 -0.07932,-0.27761 v -4.868094 h -1.457454 q -0.188378,0 -0.27761,-0.07932 -0.07932,-0.08923 -0.07932,-0.27761 v -1.199673 q 0,-0.188378 0.07932,-0.267695 0.08923,-0.08923 0.27761,-0.08923 h 5.234936 q 0.188378,0 0.267695,0.08923 0.08923,0.07932 0.08923,0.267695 v 1.199673 q 0,0.188378 -0.08923,0.27761 -0.07932,0.07932 -0.267695,0.07932 h -1.457454 v 4.868094 q 0,0.188378 -0.08923,0.27761 -0.07932,0.07932 -0.267695,0.07932 z"
         style="font-style:normal;font-variant:normal;font-weight:normal;font-stretch:normal;font-family:Bungee;-inkscape-font-specification:Bungee;fill:#000000;fill-opacity:1;stroke-width:0.247867;stroke:none"
         id="path1348" />
      <path
         d="m 96.296826,84.267189 h -4.600398 q -0.188378,0 -0.27761,-0.07932 -0.07932,-0.08923 -0.07932,-0.27761 v -6.424694 q 0,-0.188378 0.07932,-0.267695 0.08923,-0.08923 0.27761,-0.08923 h 4.600398 q 0.188378,0 0.267695,0.08923 0.08923,0.07932 0.08923,0.267695 v 1.160014 q 0,0.188379 -0.08923,0.277611 -0.07932,0.07932 -0.267695,0.07932 h -2.736444 v 0.763428 h 1.933357 q 0.188378,0 0.267696,0.08923 0.08923,0.07932 0.08923,0.267695 v 1.060868 q 0,0.188378 -0.08923,0.27761 -0.07932,0.07932 -0.267696,0.07932 h -1.933357 v 0.85266 h 2.736444 q 0.188378,0 0.267695,0.08923 0.08923,0.07932 0.08923,0.267696 v 1.160014 q 0,0.188378 -0.08923,0.27761 -0.07932,0.07932 -0.267695,0.07932 z"
         style="font-style:normal;font-variant:normal;font-weight:normal;font-stretch:normal;font-family:Bungee;-inkscape-font-specification:Bungee;fill:#000000;fill-opacity:1;stroke-width:0.247867;stroke:none"
         id="path1350" />
      <path
         d="m 101.13517,84.267189 h -3.133031 q -0.188378,0 -0.27761,-0.07932 -0.07932,-0.08923 -0.07932,-0.27761 v -1.160014 q 0,-0.188379 0.07932,-0.267696 0.08923,-0.08923 0.27761,-0.08923 h 2.667041 q 0.12889,0 0.18838,-0.07932 0.0694,-0.08923 0.0694,-0.208208 0,-0.168549 -0.0694,-0.247866 -0.0595,-0.07932 -0.18838,-0.08923 L 99.181982,81.56049 q -0.694025,-0.09915 -1.120355,-0.456074 -0.416415,-0.356928 -0.416415,-1.189758 v -1.041039 q 0,-0.842745 0.545305,-1.288904 0.545306,-0.456074 1.507027,-0.456074 h 2.776106 q 0.18837,0 0.26769,0.08923 0.0892,0.07932 0.0892,0.267695 v 1.179844 q 0,0.188378 -0.0892,0.27761 -0.0793,0.07932 -0.26769,0.07932 h -2.31012 q -0.12889,0 -0.19829,0.08923 -0.0694,0.07932 -0.0694,0.208208 0,0.12889 0.0694,0.218122 0.0694,0.08923 0.19829,0.09915 l 1.47729,0.198293 q 0.69402,0.09915 1.12035,0.456074 0.42633,0.356928 0.42633,1.189758 v 1.041039 q 0,0.842745 -0.55522,1.298819 -0.54531,0.446159 -1.49711,0.446159 z"
         style="font-style:normal;font-variant:normal;font-weight:normal;font-stretch:normal;font-family:Bungee;-inkscape-font-specification:Bungee;fill:#000000;fill-opacity:1;stroke-width:0.247867;stroke:none"
         id="path1352" />
    </g>
    <path
       style="fill:#000000;fill-opacity:1;stroke:none;stroke-width:0;stroke-linecap:butt;stroke-linejoin:miter;stroke-miterlimit:4;stroke-dasharray:none;stroke-opacity:0"
       d="m 99.218753,56.620834 h 6.614587 V 85.989583 H 47.625 V 56.620833 H 88.635417 V 54.504167 H 45.24375 V 88.10625 H 107.95 V 54.504167 h -8.73125 z"
       id="path1071"
       sodipodi:nodetypes="ccccccccccccc" />
    <path
       style="fill:#ff0066;fill-opacity:1;stroke:none;stroke-width:0.264583px;stroke-linecap:butt;stroke-linejoin:miter;stroke-opacity:1"
       d="m 91.810416,52.387501 v 4.233333 h 4.233333 v -4.233333 z"
       id="path1150" />
    <path
       style="fill:#0055d4;fill-opacity:1;stroke:none;stroke-width:0.264583px;stroke-linecap:butt;stroke-linejoin:miter;stroke-opacity:1"
       d="m 96.043749,48.154168 v 4.233333 h 4.233331 v -4.233333 z"
       id="path1150-2" />
  </g>
</svg>
